<?xml version="1.0"?>
<svg width="470.22231" height="109.29466" xmlns="http://www.w3.org/2000/svg" xmlns:svg="http://www.w3.org/2000/svg" version="1.1" xml:space="preserve">
 <metadata id="metadata8">image/svg+xml</metadata>
 <g class="layer">
  <title>Layer 1</title>
  <path d="m415.62,109.29c-14.59,0 -27.18,-9.97 -30.63,-23.97c-14,-3.45 -23.97,-16.04 -23.97,-30.63c0,-14.58 9.96,-27.16 23.94,-30.62c3.41,-14.06 16.01,-24.07 30.66,-24.07c14.59,0 27.18,9.97 30.63,23.97c14,3.45 23.97,16.04 23.97,30.63c0,14.58 -9.96,27.16 -23.94,30.62c-3.41,14.06 -16.01,24.07 -30.66,24.07" fill="#0b8ed8" fill-rule="nonzero" id="path14"/>
  <path d="m415.62,106.46c-14.06,0 -25.79,-10.16 -28.25,-23.52c-13.36,-2.45 -23.52,-14.19 -23.52,-28.25c0,-14.05 10.15,-25.78 23.5,-28.24c2.41,-13.41 14.17,-23.62 28.26,-23.62c14.06,0 25.79,10.16 28.25,23.52c13.36,2.45 23.52,14.19 23.52,28.25c0,14.05 -10.15,25.78 -23.5,28.24c-2.41,13.41 -14.17,23.62 -28.26,23.62" fill="#ffffff" fill-rule="nonzero" id="path16"/>
  <path d="m438.67,31.55c0,-12.73 -10.32,-23.05 -23.05,-23.05c-12.73,0 -23.05,10.32 -23.05,23.05c0,12.73 10.32,23.05 23.05,23.05c12.73,0 23.05,-10.32 23.05,-23.05" fill="#00adef" fill-rule="nonzero" id="path18"/>
  <path d="m415.62,54.7c0,-12.73 -10.32,-23.04 -23.05,-23.04c-12.73,0 -23.05,10.31 -23.05,23.04c0,12.73 10.32,23.05 23.05,23.05c12.73,0 23.05,-10.32 23.05,-23.05" fill="#0b8ed8" fill-rule="nonzero" id="path20"/>
  <path d="m461.72,54.6c0,-12.73 -10.32,-23.05 -23.05,-23.05c-12.73,0 -23.05,10.32 -23.05,23.05c0,12.73 10.32,23.05 23.05,23.05c12.73,0 23.05,-10.32 23.05,-23.05" fill="#0b8ed8" fill-rule="nonzero" id="path22" transform="matrix(1 0 0 1 0 0)"/>
  <path d="m438.67,77.75c0,-12.73 -10.32,-23.05 -23.05,-23.05c-12.73,0 -23.05,10.32 -23.05,23.05c0,12.73 10.32,23.05 23.05,23.05c12.73,0 23.05,-10.32 23.05,-23.05" fill="#096da9" fill-rule="nonzero" id="path24"/>
  <path d="m415.62,54.7c-12.73,0 -23.05,10.32 -23.05,23.05c12.73,0 23.05,-10.32 23.05,-23.05" fill="#115595" fill-rule="nonzero" id="path26"/>
  <path d="m415.63,54.7c0.05,12.68 10.34,22.95 23.04,22.95c-0.05,-12.69 -10.34,-22.95 -23.04,-22.95" fill="#115595" fill-rule="nonzero" id="path28"/>
  <path d="m415.62,54.7c12.73,0 23.05,-10.32 23.05,-23.05c-12.73,0 -23.05,10.32 -23.05,23.05" fill="#096da9" fill-rule="nonzero" id="path30"/>
  <path d="m415.62,54.7c-0.05,-12.69 -10.34,-22.95 -23.04,-22.95c0.05,12.69 10.35,22.95 23.04,22.95" fill="#096da9" fill-rule="nonzero" id="path32"/>
  <path d="m441.77,45.65l-17.2,0l0,-17.2l-17.9,0l0,17.2l-17.2,0l0,17.89l17.2,0l0,17.21l17.9,0l0,-17.21l17.2,0l0,-17.89" fill="#ffffff" fill-rule="nonzero" id="path34"/>
  <path d="m37.81,69.29c0,3.15 -0.52,5.81 -1.57,7.97c-1.05,2.16 -2.49,3.9 -4.33,5.21c-1.84,1.31 -3.97,2.26 -6.39,2.85c-2.42,0.58 -4.97,0.87 -7.66,0.87c-1.22,0 -2.6,-0.06 -4.11,-0.18c-1.52,-0.11 -3.03,-0.27 -4.55,-0.48c-1.52,-0.2 -2.99,-0.46 -4.42,-0.75c-1.43,-0.29 -2.61,-0.64 -3.55,-1.05c-0.64,-0.29 -1.02,-0.59 -1.13,-0.88c-0.12,-0.29 -0.12,-0.64 0,-1.05l0.61,-2.45c0.18,-0.64 0.67,-0.93 1.49,-0.87c1.23,0.17 2.57,0.34 4.03,0.48c1.46,0.15 2.91,0.28 4.33,0.39c1.43,0.11 2.77,0.2 4.03,0.26c1.25,0.06 2.32,0.08 3.19,0.08c4.38,0 7.69,-0.82 9.93,-2.45c2.25,-1.63 3.37,-3.94 3.37,-6.91c0,-1.99 -0.19,-3.63 -0.57,-4.95c-0.38,-1.31 -1.04,-2.39 -1.97,-3.23c-0.93,-0.85 -2.19,-1.52 -3.76,-2.01c-1.58,-0.5 -3.53,-0.95 -5.87,-1.36c-2.63,-0.41 -5.07,-0.92 -7.35,-1.53c-2.28,-0.61 -4.26,-1.46 -5.96,-2.54c-1.69,-1.08 -3.02,-2.52 -3.98,-4.34c-0.96,-1.81 -1.44,-4.17 -1.44,-7.09c0,-5.37 1.61,-9.46 4.82,-12.25c3.21,-2.8 7.82,-4.2 13.83,-4.2c0.88,0 1.96,0.03 3.24,0.09c1.28,0.06 2.66,0.17 4.11,0.35c1.46,0.17 2.92,0.41 4.38,0.7c1.46,0.29 2.77,0.67 3.94,1.13c0.64,0.23 1.02,0.51 1.14,0.84c0.11,0.32 0.11,0.69 0,1.09l-0.52,2.36c-0.12,0.29 -0.28,0.55 -0.49,0.79c-0.2,0.23 -0.6,0.32 -1.18,0.26c-1.93,-0.29 -4.2,-0.57 -6.83,-0.83c-2.63,-0.27 -5.23,-0.4 -7.79,-0.4c-2.28,0 -4.19,0.23 -5.73,0.71c-1.55,0.47 -2.77,1.12 -3.68,1.97c-0.9,0.84 -1.55,1.88 -1.92,3.1c-0.38,1.23 -0.57,2.57 -0.57,4.03c0,1.75 0.22,3.14 0.66,4.16c0.44,1.02 1.16,1.85 2.15,2.5c0.99,0.64 2.28,1.15 3.86,1.53c1.58,0.38 3.51,0.78 5.79,1.18c2.52,0.47 4.9,0.99 7.15,1.58c2.25,0.58 4.22,1.47 5.88,2.67c1.67,1.2 2.98,2.8 3.95,4.81c0.97,2.02 1.45,4.63 1.45,7.84" fill="#ffffff" fill-rule="nonzero" id="path36"/>
  <path d="m49.52,27.36l29.52,0c0.99,0 1.49,0.46 1.49,1.38l0,3.37c0,0.98 -0.53,1.47 -1.58,1.47l-24.42,0l0,18.65l21.62,0c0.99,0 1.49,0.46 1.49,1.38l0,3.37c0,0.98 -0.53,1.47 -1.57,1.47l-21.45,0l0,25.47c0,0.99 -0.49,1.49 -1.47,1.49l-3.71,0c-1.04,0 -1.55,-0.5 -1.55,-1.49l0,-55.15c0,-0.94 0.55,-1.4 1.64,-1.4" fill="#ffffff" fill-rule="nonzero" id="path38"/>
  <path d="m122.19,33.58l-14.7,0l0,50.33c0,0.99 -0.47,1.49 -1.4,1.49l-3.76,0c-1.05,0 -1.57,-0.5 -1.57,-1.49l0,-50.33l-14.62,0c-1.05,0 -1.58,-0.49 -1.58,-1.47l0,-3.37c0,-0.92 0.5,-1.38 1.49,-1.38l36.23,0c0.99,0 1.49,0.46 1.49,1.38l0,3.37c0,0.98 -0.52,1.47 -1.57,1.47" fill="#ffffff" fill-rule="nonzero" id="path40"/>
  <path d="m160.96,44.35c0,-3.68 -1.08,-6.39 -3.25,-8.14c-2.17,-1.75 -5.04,-2.63 -8.61,-2.63l-10.9,0l0,22.23l11.43,0c2.23,0 4.07,-0.32 5.54,-0.97c1.46,-0.64 2.62,-1.5 3.47,-2.58c0.85,-1.08 1.45,-2.3 1.8,-3.67c0.35,-1.38 0.52,-2.79 0.52,-4.24zm6.74,-0.09c0,1.98 -0.28,4.01 -0.83,6.09c-0.56,2.07 -1.53,3.97 -2.9,5.69c-1.37,1.72 -3.22,3.12 -5.53,4.2c-2.31,1.08 -5.22,1.62 -8.73,1.62l-11.5,0l0,22.06c0,0.99 -0.49,1.49 -1.47,1.49l-3.71,0c-1.04,0 -1.56,-0.5 -1.56,-1.49l0,-55.15c0,-0.94 0.52,-1.4 1.58,-1.4l16.63,0c2.57,0 4.96,0.35 7.18,1.05c2.22,0.7 4.13,1.75 5.73,3.15c1.6,1.4 2.86,3.17 3.76,5.3c0.9,2.13 1.36,4.59 1.36,7.4" fill="#ffffff" fill-rule="nonzero" id="path42"/>
  <path d="m203.63,45.65c0,-2.33 -0.69,-4.05 -2.06,-5.17c-1.37,-1.1 -3.19,-1.66 -5.47,-1.66l-6.31,0l0,13.92l6.48,0c2.28,0 4.07,-0.58 5.38,-1.76c1.31,-1.16 1.97,-2.94 1.97,-5.33l0.01,0zm-13.83,37.81c0,0.47 -0.1,0.91 -0.3,1.31c-0.2,0.41 -0.72,0.61 -1.53,0.61l-10.15,0c-1.29,0 -1.93,-0.64 -1.93,-1.93l0,-54.36c0,-0.52 0.13,-0.97 0.39,-1.36c0.26,-0.38 0.77,-0.57 1.53,-0.57l20.31,0c2.74,0 5.31,0.38 7.7,1.13c2.39,0.76 4.49,1.89 6.31,3.37c1.81,1.49 3.22,3.37 4.24,5.65c1.03,2.28 1.53,4.94 1.53,7.97c0,2.04 -0.28,4.15 -0.83,6.35c-0.55,2.18 -1.56,4.2 -3.02,6.03c-1.46,1.84 -3.48,3.36 -6.05,4.55c-2.57,1.2 -5.86,1.8 -9.89,1.8l-8.32,0l0,19.43" fill="#c6c6c6" fill-rule="nonzero" id="path44"/>
  <path d="m236.74,72c0,1.23 0.29,1.99 0.87,2.28c0.58,0.29 1.54,0.46 2.89,0.52c0.87,0.06 1.4,0.15 1.58,0.26c0.18,0.12 0.32,0.49 0.44,1.14l0.44,6.57c0.06,0.82 -0.41,1.46 -1.4,1.92c-1.05,0.47 -2.28,0.77 -3.67,0.92c-1.4,0.15 -2.51,0.22 -3.33,0.22c-3.79,0 -6.59,-0.86 -8.41,-2.58c-1.81,-1.72 -2.71,-4.59 -2.71,-8.62l0,-49.1c0,-0.58 0.13,-1.05 0.39,-1.41c0.26,-0.35 0.77,-0.52 1.53,-0.52l9.54,0c0.82,0 1.33,0.2 1.53,0.61c0.2,0.41 0.31,0.85 0.31,1.32l0,46.47" fill="#c6c6c6" fill-rule="nonzero" id="path46"/>
  <path d="m288.61,84.91c-0.26,0.32 -0.77,0.48 -1.52,0.48l-9.57,0c-0.81,0 -1.32,-0.19 -1.52,-0.57c-0.2,-0.38 -0.31,-0.8 -0.31,-1.27l0,-2.19c-0.05,0 -0.09,-0.01 -0.09,-0.04c0,-0.03 -0.03,-0.04 -0.08,-0.04c-1.98,1.52 -4.25,2.7 -6.79,3.55c-2.54,0.84 -4.86,1.27 -6.96,1.27c-3.09,0 -5.5,-0.47 -7.22,-1.4c-1.72,-0.93 -3,-2.17 -3.85,-3.72c-0.85,-1.54 -1.37,-3.32 -1.57,-5.34c-0.2,-2.01 -0.31,-4.13 -0.31,-6.35l0,-25.12c0,-0.47 0.1,-0.9 0.31,-1.31c0.2,-0.41 0.71,-0.61 1.53,-0.61l9.63,0c0.7,0 1.18,0.17 1.44,0.52c0.26,0.35 0.39,0.82 0.39,1.41l0,22.93c0,2.22 0.4,3.9 1.19,5.04c0.79,1.14 2.17,1.71 4.16,1.71c0.7,0 1.43,-0.1 2.19,-0.3c0.76,-0.21 1.5,-0.44 2.23,-0.7c0.73,-0.27 1.43,-0.54 2.1,-0.83c0.67,-0.29 1.24,-0.53 1.71,-0.7l0,-27.13c0,-0.47 0.1,-0.9 0.31,-1.31c0.2,-0.41 0.71,-0.61 1.52,-0.61l9.57,0c0.75,0 1.26,0.17 1.52,0.52c0.26,0.35 0.39,0.82 0.39,1.41l0,39.39c0,0.58 -0.13,1.03 -0.39,1.36" fill="#c6c6c6" fill-rule="nonzero" id="path48"/>
  <path d="m331.24,71.78c0,2.74 -0.54,5.02 -1.62,6.85c-1.08,1.83 -2.53,3.3 -4.34,4.41c-1.81,1.1 -3.87,1.9 -6.17,2.4c-2.31,0.49 -4.71,0.74 -7.22,0.74c-1.05,0 -2.19,-0.04 -3.41,-0.13c-1.22,-0.09 -2.46,-0.21 -3.72,-0.39c-1.25,-0.18 -2.45,-0.38 -3.59,-0.61c-1.13,-0.23 -2.14,-0.49 -3.02,-0.78c-1.46,-0.52 -2.39,-1.06 -2.8,-1.61c-0.41,-0.55 -0.47,-1.41 -0.18,-2.56l0.96,-4.17c0.18,-0.81 0.44,-1.3 0.79,-1.48c0.35,-0.17 1.02,-0.17 2.01,0c2.05,0.35 4.26,0.63 6.65,0.83c2.39,0.2 4.34,0.31 5.86,0.31c2.22,0 3.8,-0.25 4.73,-0.75c0.93,-0.49 1.4,-1.33 1.4,-2.5c0,-1.29 -0.35,-2.15 -1.05,-2.59c-0.71,-0.43 -1.99,-0.77 -3.85,-1.01c-2.39,-0.35 -4.63,-0.75 -6.7,-1.23c-2.07,-0.47 -3.89,-1.17 -5.47,-2.1c-1.58,-0.94 -2.81,-2.2 -3.72,-3.78c-0.91,-1.58 -1.36,-3.66 -1.36,-6.23c0,-2.34 0.45,-4.39 1.35,-6.14c0.9,-1.76 2.13,-3.22 3.69,-4.39c1.57,-1.17 3.44,-2.05 5.61,-2.63c2.18,-0.59 4.55,-0.88 7.12,-0.88c0.99,0 2.09,0.04 3.28,0.13c1.19,0.09 2.41,0.21 3.63,0.35c1.23,0.15 2.41,0.34 3.55,0.58c1.14,0.23 2.17,0.53 3.11,0.88c1.17,0.41 2.03,0.84 2.58,1.28c0.55,0.45 0.68,1.22 0.39,2.35l-0.96,4.5c-0.23,0.82 -0.48,1.32 -0.74,1.49c-0.26,0.17 -0.89,0.2 -1.88,0.09c-0.99,-0.12 -2.07,-0.25 -3.24,-0.4c-1.17,-0.14 -2.32,-0.27 -3.46,-0.35c-1.14,-0.09 -2.2,-0.16 -3.19,-0.22c-0.99,-0.05 -1.84,-0.09 -2.54,-0.09c-2.22,-0.06 -3.6,0.19 -4.16,0.75c-0.55,0.55 -0.83,1.29 -0.83,2.22c0,1.11 0.51,1.82 1.54,2.14c1.03,0.32 2.33,0.62 3.91,0.91c2.28,0.29 4.45,0.66 6.5,1.09c2.05,0.43 3.85,1.15 5.4,2.14c1.55,0.99 2.8,2.31 3.73,3.97c0.94,1.66 1.41,3.85 1.41,6.59" fill="#c6c6c6" fill-rule="nonzero" id="path50"/>
 </g>
</svg>